Coordinates
version=1
nRows=16
nColumns=40
inDegrees=yes

Units are S.I. units (second, meters, Newtons, ...)
If the header above contains a line with 'inDegrees', this indicates whether rotational values are in degrees (yes) or radians (no).

endheader
time	pelvis_tilt	pelvis_list	pelvis_rotation	pelvis_tx	pelvis_ty	pelvis_tz	hip_flexion_r	hip_adduction_r	hip_rotation_r	knee_angle_r	knee_angle_r_beta	ankle_angle_r	subtalar_angle_r	mtp_angle_r	hip_flexion_l	hip_adduction_l	hip_rotation_l	knee_angle_l	knee_angle_l_beta	ankle_angle_l	subtalar_angle_l	mtp_angle_l	lumbar_extension	lumbar_bending	lumbar_rotation	arm_flex_r	arm_add_r	arm_rot_r	elbow_flex_r	pro_sup_r	wrist_flex_r	wrist_dev_r	arm_flex_l	arm_add_l	arm_rot_l	elbow_flex_l	pro_sup_l	wrist_flex_l	wrist_dev_l
      0.48000000	     -1.77266753	     -5.38534980	     85.64246268	      0.20570935	      0.91975270	      1.36491258	     17.80983174	     -7.77509709	      0.67301396	     68.64546754	      1.19808943	     -0.53687077	      0.00000000	      0.00000000	     17.88930852	      3.84617676	     -0.87896119	     14.25750409	      0.24884039	      3.46360377	      0.00000000	      0.00000000	     -3.56944777	     -3.89261627	     -0.17431053	      0.00000000	      0.00000000	      0.00000000	      0.00000000	      0.00000000	      0.00000000	      0.00000000	      0.00000000	      0.00000000	      0.00000000	      0.00000000	      0.00000000	      0.00000000	      0.00000000
      0.49000000	     -1.51833532	     -5.75077743	     85.94856445	      0.20453017	      0.92219357	      1.35304289	     20.23026037	     -7.53053429	      0.22625826	     68.98354297	      1.20398995	      0.53241450	      0.00000000	      0.00000000	     16.67734672	      3.82458415	     -0.24705330	     12.87196676	      0.22465820	      3.52827690	      0.00000000	      0.00000000	     -3.27917511	     -3.53002285	     -0.55400652	      0.00000000	      0.00000000	      0.00000000	      0.00000000	      0.00000000	      0.00000000	      0.00000000	      0.00000000	      0.00000000	      0.00000000	      0.00000000	      0.00000000	      0.00000000	      0.00000000
      0.50000000	     -1.23046980	     -6.09225734	     86.26641798	      0.20348112	      0.92433758	      1.34125179	     22.51956718	     -7.23371242	     -0.23431212	     68.94270858	      1.20327726	      1.45675240	      0.00000000	      0.00000000	     15.47400188	      3.74287163	      0.40518720	     11.53690243	      0.20135693	      3.61036724	      0.00000000	      0.00000000	     -3.03661458	     -3.14024528	     -0.93636987	      0.00000000	      0.00000000	      0.00000000	      0.00000000	      0.00000000	      0.00000000	      0.00000000	      0.00000000	      0.00000000	      0.00000000	      0.00000000	      0.00000000	      0.00000000	      0.00000000
      0.51000000	     -0.95023879	     -6.40604211	     86.61961841	      0.20253127	      0.92617727	      1.32945722	     24.65585706	     -6.94045216	     -0.72103302	     68.53612888	      1.19618111	      2.30314368	      0.00000000	      0.00000000	     14.26153497	      3.64774509	      1.06920001	     10.23189798	      0.17858031	      3.69075004	     -0.00000000	     -0.00000000	     -2.82455385	     -2.79061315	     -1.36342908	      0.00000000	      0.00000000	     -0.00000000	      0.00000000	      0.00000000	      0.00000000	      0.00000000	      0.00000000	      0.00000000	     -0.00000000	      0.00000000	      0.00000000	     -0.00000000	      0.00000000
      0.52000000	     -0.67414108	     -6.67455719	     86.98650104	      0.20166391	      0.92770558	      1.31765234	     26.61713913	     -6.64799818	     -1.20328050	     67.76790053	      1.18277299	      3.03092938	      0.00000000	      0.00000000	     13.03403488	      3.53362442	      1.69767671	      8.98172255	      0.15676063	      3.80434718	      0.00000000	      0.00000000	     -2.65448180	     -2.45572419	     -1.80570482	      0.00000000	      0.00000000	      0.00000000	      0.00000000	      0.00000000	      0.00000000	      0.00000000	      0.00000000	      0.00000000	      0.00000000	      0.00000000	      0.00000000	      0.00000000	      0.00000000
      0.53000000	     -0.39283922	     -6.72067880	     87.40635945	      0.20084690	      0.92924534	      1.30560835	     28.14697627	     -6.37972585	     -1.74017486	     66.59440953	      1.16229171	      3.68554583	      0.00000000	      0.00000000	     11.53784070	      3.40857035	      2.40444105	      7.69758037	      0.13434812	      3.88189800	      0.00000000	      0.00000000	     -2.73629805	     -2.14077243	     -2.32637473	      0.00000000	      0.00000000	      0.00000000	      0.00000000	      0.00000000	      0.00000000	      0.00000000	      0.00000000	      0.00000000	      0.00000000	      0.00000000	      0.00000000	      0.00000000	      0.00000000
      0.54000000	     -0.13954562	     -6.95028242	     87.80680483	      0.20019124	      0.93003914	      1.29377385	     29.81321266	     -6.10032471	     -2.20950843	     65.16994461	      1.13743011	      4.26785596	      0.00000000	      0.00000000	     10.34229155	      3.25985953	      3.03857013	      6.57456137	      0.11474774	      4.06331426	      0.00000000	      0.00000000	     -2.61687807	     -1.86560010	     -2.74721018	      0.00000000	      0.00000000	      0.00000000	      0.00000000	      0.00000000	      0.00000000	      0.00000000	      0.00000000	      0.00000000	      0.00000000	      0.00000000	      0.00000000	      0.00000000	      0.00000000
      0.55000000	      0.07949827	     -7.06975043	     88.21284978	      0.19956981	      0.93062562	      1.28181489	     31.19717489	     -5.85241788	     -2.64719176	     63.38624173	      1.10629862	      4.75929675	      0.00000000	      0.00000000	      9.04674595	      3.13500731	      3.67136879	      5.49209863	      0.09585520	      4.27405746	      0.00000000	      0.00000000	     -2.61302022	     -1.63262333	     -3.18796703	      0.00000000	      0.00000000	      0.00000000	      0.00000000	      0.00000000	      0.00000000	      0.00000000	      0.00000000	      0.00000000	      0.00000000	      0.00000000	      0.00000000	      0.00000000	      0.00000000
      0.56000000	      0.27156087	     -6.96805336	     88.59323769	      0.19913511	      0.93119561	      1.26958180	     32.16651395	     -5.61080364	     -3.03308774	     61.23443573	      1.06874252	      5.11344586	      0.00000000	      0.00000000	      7.49211727	      3.00346010	      4.20310738	      4.40416883	      0.07686725	      4.50319023	      0.00000000	      0.00000000	     -2.85031790	     -1.46556844	     -3.66257789	      0.00000000	      0.00000000	      0.00000000	      0.00000000	      0.00000000	      0.00000000	      0.00000000	      0.00000000	      0.00000000	      0.00000000	      0.00000000	      0.00000000	      0.00000000	      0.00000000
      0.57000000	      0.37742015	     -7.08549383	     88.91817384	      0.19886239	      0.93096431	      1.25754577	     33.30787090	     -5.39937625	     -3.29182891	     58.86002080	      1.02730116	      5.41070903	      0.00000000	      0.00000000	      6.26384533	      2.92845810	      4.68175520	      3.46202294	      0.06042370	      4.82987639	      0.00000000	      0.00000000	     -2.83817739	     -1.39076717	     -4.04707593	      0.00000000	      0.00000000	      0.00000000	      0.00000000	      0.00000000	      0.00000000	      0.00000000	      0.00000000	      0.00000000	      0.00000000	      0.00000000	      0.00000000	      0.00000000	      0.00000000
      0.58000000	      0.43700638	     -7.03657585	     89.19325732	      0.19872936	      0.93065220	      1.24532169	     34.09208696	     -5.19177670	     -3.44779684	     56.11820618	      0.97944747	      5.53803480	     -0.00000000	      0.00000000	      4.84063392	      2.88354929	      5.17661946	      2.52181418	      0.04401396	      5.19547107	     -0.00000000	      0.00000000	     -3.00513966	     -1.36632447	     -4.42121751	     -0.00000000	     -0.00000000	     -0.00000000	      0.00000000	      0.00000000	     -0.00000000	     -0.00000000	      0.00000000	      0.00000000	     -0.00000000	      0.00000000	      0.00000000	     -0.00000000	      0.00000000
      0.59000000	      0.45652684	     -6.85188778	     89.41033705	      0.19877392	      0.93019634	      1.23289199	     34.56926392	     -4.99221732	     -3.56021131	     53.06532994	      0.92616473	      5.51831185	      0.00000000	      0.00000000	      3.26364187	      2.85501261	      5.48935583	      1.60029782	      0.02793047	      5.56352872	      0.00000000	      0.00000000	     -3.32528635	     -1.41416435	     -4.69954291	      0.00000000	      0.00000000	      0.00000000	      0.00000000	      0.00000000	      0.00000000	      0.00000000	      0.00000000	      0.00000000	      0.00000000	      0.00000000	      0.00000000	      0.00000000	      0.00000000
      0.60000000	      0.39667061	     -6.71714948	     89.54622930	      0.19904316	      0.92930677	      1.22044609	     34.97689274	     -4.79270764	     -3.50124392	     49.73883007	      0.86810635	      5.37702438	     -0.00000000	      0.00000000	      1.77792705	      2.88963833	      5.73417985	      0.75809282	      0.01323122	      5.97727135	      0.00000000	     -0.00000000	     -3.58849223	     -1.55893891	     -4.94427965	      0.00000000	     -0.00000000	      0.00000000	      0.00000000	      0.00000000	     -0.00000000	      0.00000000	     -0.00000000	      0.00000000	     -0.00000000	      0.00000000	      0.00000000	      0.00000000	     -0.00000000
      0.61000000	      0.27719292	     -6.65380049	     89.64499178	      0.19940967	      0.92796959	      1.20799637	     35.33655367	     -4.61504730	     -3.33679828	     46.15670936	      0.80558655	      5.07028040	      0.00000000	      0.00000000	      0.39688797	      2.98180854	      5.99862963	     -0.01507907	     -0.00026318	      6.47889805	      0.00000000	      0.00000000	     -3.75838787	     -1.77390302	     -5.18586039	      0.00000000	      0.00000000	      0.00000000	      0.00000000	      0.00000000	      0.00000000	      0.00000000	      0.00000000	      0.00000000	      0.00000000	      0.00000000	      0.00000000	      0.00000000	      0.00000000
      0.62000000	      0.15520591	     -6.42097939	     89.70571987	      0.19990563	      0.92663883	      1.19533772	     35.31369714	     -4.38989383	     -3.05032409	     42.26488635	      0.73766142	      4.79947850	      0.00000000	      0.00000000	     -1.17052680	      3.06757576	      6.11786453	     -0.76876695	     -0.01341751	      6.86540684	      0.00000000	      0.00000000	     -4.11939830	     -1.97695578	     -5.38356873	      0.00000000	      0.00000000	      0.00000000	      0.00000000	      0.00000000	      0.00000000	      0.00000000	      0.00000000	      0.00000000	      0.00000000	      0.00000000	      0.00000000	      0.00000000	      0.00000000
      0.63000000	     -0.06901360	     -6.41210985	     89.75055069	      0.20040630	      0.92466653	      1.18278498	     35.45547217	     -4.27227111	     -2.69775998	     38.20854590	      0.66686493	      4.17916612	      0.00000000	      0.00000000	     -2.42782169	      3.26562296	      6.39314902	     -1.37027295	     -0.02391577	      7.51182634	      0.00000000	      0.00000000	     -4.22822141	     -2.29269822	     -5.52377026	      0.00000000	      0.00000000	      0.00000000	      0.00000000	      0.00000000	      0.00000000	      0.00000000	      0.00000000	      0.00000000	      0.00000000	      0.00000000	      0.00000000	      0.00000000	      0.00000000
